[img]http://www.imagefreeks.com/out.php/i79_banner.png[/img]
[img]http://www.imagefreeks.com/out.php/i151_8spE6SoM.jpeg[/img]

[img]http://www.imagefreeks.com/out.php/i85_info.png[/img]
[code]General
Complete name : Season Of The Witch.2011.DVDRIP.XVID.PRESTiGE.avi
Format : AVI
Format/Info : Audio Video Interleave
File size : 1.47 GiB
Duration : 1h 34mn
Overall bit rate : 2 228 Kbps
Writing library : MPlayer

Video
ID : 0
Format : MPEG-4 Visual
Format profile : Advanced Simple@L5
Format settings, BVOP : 2
Format settings, QPel : No
Format settings, GMC : No warppoints
Format settings, Matrix : Default (H.263)
Codec ID : XVID
Codec ID/Hint : XviD
Duration : 1h 34mn
Bit rate : 1 960 Kbps
Width : 720 pixels
Height : 400 pixels
Display aspect ratio : 16:9
Frame rate : 23.976 fps
Color space : YUV
Chroma subsampling : 4:2:0
Bit depth : 8 bits
Scan type : Progressive
Compression mode : Lossy
Bits/(Pixel*Frame) : 0.284
Stream size : 1.30 GiB (88%)
Writing library : XviD 1.1.2 (UTC 2006-11-01)

Audio
ID : 1
Format : MPEG Audio
Format version : Version 1
Format profile : Layer 3
Mode : Joint stereo
Codec ID : 55
Codec ID/Hint : MP3
Duration : 1h 34mn
Bit rate mode : Constant
Bit rate : 256 Kbps
Channel(s) : 2 channels
Sampling rate : 44.1 KHz
Compression mode : Lossy
Delay relative to video : 42ms
Stream size : 173 MiB (11%)
Alignment : Aligned on interleaves
Interleave, duration : 26 ms (0.63 video frame)
Interleave, preload duration : 809 ms [/code]

[img]http://www.imagefreeks.com/out.php/i86_screens.png[/img]
[img]http://www.imagefreeks.com/out.php/i152_9liQiMhS.jpeg[/img]